<?xml version="1.0" standalone="no"?>
<!DOCTYPE svg PUBLIC "-//W3C//DTD SVG 20010904//EN"
 "http://www.w3.org/TR/2001/REC-SVG-20010904/DTD/svg10.dtd">
<svg version="1.0" xmlns="http://www.w3.org/2000/svg"
 width="906.000000pt" height="906.000000pt" viewBox="0 0 906.000000 906.000000"
 preserveAspectRatio="xMidYMid meet">
<metadata>
Created by potrace 1.14, written by Peter Selinger 2001-2017
</metadata>
<g transform="translate(0.000000,906.000000) scale(0.100000,-0.100000)"
fill="#000000" stroke="none">
<path d="M4925 8907 c-19 -46 -33 -52 -87 -39 -23 6 -44 9 -47 6 -3 -2 5 -18
17 -34 12 -16 22 -31 22 -34 0 -2 -30 -7 -67 -11 -123 -11 -157 -16 -227 -32
-37 -8 -75 -17 -85 -18 -9 -2 -17 -4 -18 -5 -2 -2 -9 -3 -15 -4 -20 -3 -27 15
-18 40 13 33 -2 37 -35 8 -36 -31 -47 -30 -90 7 -19 17 -35 29 -36 28 -1 -2
-3 -24 -5 -48 -4 -49 -15 -61 -56 -61 -14 0 -33 -3 -42 -6 -13 -5 -12 -9 9
-26 14 -11 25 -25 25 -32 0 -7 -27 -28 -60 -47 -33 -18 -60 -37 -60 -41 0 -5
-5 -8 -11 -8 -6 0 -24 -9 -40 -21 -16 -11 -29 -18 -29 -15 0 3 -15 -9 -34 -27
-98 -92 -118 -107 -136 -97 -10 5 -28 26 -40 47 -16 28 -24 33 -30 23 -5 -8
-7 -17 -5 -20 2 -3 -4 -16 -14 -29 -15 -20 -26 -23 -75 -22 l-58 0 35 -42 35
-43 -20 -27 c-11 -15 -26 -27 -33 -27 -32 0 -21 -16 12 -18 20 -2 40 -5 45 -8
8 -5 -8 -44 -22 -54 -24 -17 -114 -185 -151 -285 -16 -43 -23 -52 -39 -48 -11
3 -25 11 -31 19 -6 8 -17 14 -24 14 -8 0 -16 6 -19 13 -3 6 -3 -6 1 -28 10
-70 8 -73 -39 -85 l-42 -12 32 -20 c37 -23 38 -28 16 -69 -19 -38 -14 -44 27
-30 18 6 35 11 39 11 3 0 5 -60 4 -132 -2 -73 1 -160 6 -193 5 -33 6 -63 2
-67 -4 -4 -29 -1 -55 7 -26 8 -47 13 -47 11 0 -2 7 -21 16 -42 l16 -38 -38
-33 -39 -33 30 -1 c17 -1 38 -1 48 0 11 2 17 -5 18 -18 1 -12 3 -30 4 -41 1
-11 3 -25 4 -31 0 -6 16 0 35 14 48 37 67 27 100 -48 15 -35 52 -101 82 -147
64 -97 60 -109 -41 -117 -5 -1 7 -12 28 -26 41 -29 42 -30 22 -65 -21 -37 -19
-40 28 -34 40 6 43 4 61 -31 l20 -36 20 38 c12 21 26 39 32 38 9 0 51 -29 87
-60 44 -38 130 -97 172 -120 66 -35 71 -46 29 -74 -41 -29 -37 -39 16 -37 l40
2 0 -43 c0 -48 1 -49 35 -27 23 15 25 15 31 -1 4 -9 3 -54 -2 -98 -10 -102 -9
-220 3 -241 16 -28 -12 -175 -47 -249 -18 -37 -36 -67 -40 -67 -7 0 -55 -66
-75 -105 -7 -13 -21 -20 -42 -20 -23 0 -43 -11 -76 -42 -25 -24 -55 -43 -66
-43 -12 0 -21 -7 -21 -15 0 -7 -6 -18 -13 -22 -7 -4 -20 -21 -30 -36 -10 -15
-22 -25 -27 -22 -11 7 -142 -101 -212 -177 -35 -37 -58 -71 -58 -84 0 -12 -7
-30 -16 -38 -8 -9 -12 -16 -7 -16 4 0 1 -6 -7 -13 -8 -7 -17 -21 -18 -32 -2
-11 -10 -27 -18 -36 -8 -8 -14 -23 -14 -32 0 -9 -3 -17 -8 -17 -4 0 -23 -40
-41 -90 -18 -49 -37 -88 -41 -85 -5 3 -6 -4 -3 -15 3 -11 0 -20 -6 -20 -6 0
-11 -9 -11 -20 0 -12 -7 -34 -15 -50 -9 -17 -15 -31 -15 -32 1 -4 -5 -26 -16
-53 -4 -11 -6 -23 -6 -27 1 -5 -3 -8 -9 -8 -5 0 -7 -4 -4 -10 3 -5 0 -20 -7
-32 -14 -26 -15 -30 -24 -78 -3 -19 -9 -37 -12 -40 -4 -3 -9 -14 -10 -25 -2
-11 -10 -27 -18 -36 -8 -9 -12 -18 -9 -21 3 -3 -4 -32 -17 -64 -12 -33 -23
-62 -24 -66 -1 -5 -3 -10 -4 -13 -1 -3 -3 -8 -4 -12 -1 -5 -5 -19 -10 -33 -8
-26 -9 -29 -45 -120 -12 -30 -24 -62 -26 -71 -2 -9 -13 -36 -24 -59 -11 -24
-18 -47 -15 -51 3 -5 0 -9 -5 -9 -6 0 -10 -3 -9 -7 2 -8 -24 -85 -49 -141 -8
-18 -16 -41 -18 -51 -6 -34 -33 -76 -77 -123 -69 -73 -103 -113 -103 -120 0
-4 -7 -15 -15 -25 -22 -27 -68 -124 -75 -158 -3 -16 -8 -37 -10 -45 -2 -8 -4
-19 -4 -23 -1 -5 -5 -5 -11 -2 -5 3 -10 2 -10 -4 0 -15 -60 -101 -71 -101 -5
0 -8 -3 -7 -7 7 -25 -62 -108 -78 -95 -4 4 -4 2 -1 -4 8 -14 -60 -77 -74 -69
-5 4 -9 1 -9 -5 0 -7 -7 -10 -15 -6 -8 3 -15 1 -15 -5 0 -5 -11 -22 -25 -37
-14 -15 -25 -23 -25 -18 0 6 -13 -15 -28 -45 -15 -30 -57 -84 -92 -120 -36
-36 -67 -70 -70 -75 -3 -5 -8 -8 -12 -6 -5 1 -8 -5 -8 -13 0 -8 -5 -15 -11
-15 -5 0 -7 -4 -4 -10 3 -5 2 -10 -3 -10 -10 0 -26 -38 -22 -55 6 -32 9 -41
14 -55 6 -15 -52 -70 -78 -74 -6 -1 -29 -12 -49 -24 -21 -12 -41 -22 -44 -22
-3 0 -16 -12 -29 -28 -13 -15 -24 -23 -24 -18 0 5 -18 -11 -40 -34 -22 -23
-40 -40 -40 -37 0 2 -29 -23 -63 -57 -35 -33 -62 -64 -60 -68 2 -4 -6 -9 -17
-13 -11 -4 -18 -10 -15 -15 3 -5 -4 -15 -15 -23 -11 -7 -18 -16 -15 -19 3 -3
-4 -13 -15 -23 -11 -10 -20 -22 -20 -28 0 -5 -16 -24 -36 -42 l-36 -33 25 -17
c24 -15 29 -15 59 -1 18 9 51 33 73 54 60 56 136 112 153 112 11 0 13 -8 8
-32 -3 -18 -8 -55 -12 -83 -3 -27 -12 -57 -19 -65 -7 -8 -23 -40 -35 -70 -12
-30 -29 -73 -39 -95 -21 -46 -33 -78 -31 -84 1 -2 -3 -7 -9 -11 -6 -3 -13 -16
-16 -28 -2 -12 -6 -26 -9 -30 -10 -16 25 -53 44 -47 20 6 21 -6 4 -40 -13 -24
-11 -72 3 -86 8 -8 17 -8 31 0 28 15 42 14 36 -3 -11 -28 43 -25 80 5 19 16
45 28 58 27 27 -2 190 104 243 159 52 54 102 162 131 288 15 61 29 117 31 125
10 30 22 -24 38 -170 9 -80 20 -181 25 -225 5 -44 12 -107 15 -140 10 -108 14
-138 46 -365 17 -124 32 -238 35 -255 23 -174 94 -618 100 -627 3 -5 914 -8
2024 -8 l2018 0 6 28 c3 15 19 104 36 197 52 297 116 596 146 690 9 28 56 131
105 230 100 205 171 404 228 638 41 167 94 465 110 622 9 87 7 644 -3 695 -2
14 -7 48 -11 75 -10 84 -34 153 -105 310 -38 82 -95 211 -128 285 -95 215
-309 676 -361 780 -27 52 -99 193 -160 313 -128 252 -133 259 -183 310 -20 21
-40 46 -43 55 -3 9 -32 35 -66 56 -34 22 -64 47 -67 55 -6 19 -55 68 -95 96
l-28 21 17 73 c13 59 14 82 5 111 -6 21 -11 55 -11 77 0 22 -11 76 -25 119
-23 72 -31 84 -99 151 -41 39 -88 78 -103 87 -21 10 -29 23 -31 44 -1 17 -16
77 -33 133 -44 145 -44 170 -4 212 42 44 60 50 97 31 l30 -16 -7 42 c-7 41 -7
41 34 57 23 9 41 19 41 23 0 3 -16 12 -35 19 -20 7 -35 19 -35 28 0 9 35 52
78 97 42 45 100 112 127 149 l50 69 32 -37 32 -37 6 28 c16 70 10 65 93 66 17
0 32 3 32 6 0 3 -14 20 -31 38 l-31 32 36 27 c42 32 47 50 12 41 -14 -3 -37
-1 -51 4 -32 12 -31 22 9 139 27 77 33 100 43 164 7 45 22 54 70 39 l35 -11
-6 44 -7 43 46 22 c25 12 45 23 45 26 0 2 -19 8 -41 14 -44 12 -44 13 -23 89
l7 25 -37 -23 c-44 -28 -66 -22 -66 17 0 51 -31 215 -56 292 -13 41 -24 78
-24 83 0 4 21 7 47 7 l46 0 -39 34 -39 34 21 24 c11 12 28 35 37 49 l16 27
-37 -9 c-65 -15 -70 -13 -85 39 l-14 47 -22 -37 c-13 -21 -26 -38 -30 -38 -4
0 -21 19 -38 43 -40 54 -167 186 -215 222 -37 27 -50 55 -25 55 6 0 23 9 36
19 l24 18 -43 7 c-56 9 -61 12 -51 39 4 12 11 35 15 50 l7 28 -45 -26 -45 -26
-34 36 c-38 40 -42 39 -52 -18 -9 -44 -16 -45 -94 -12 -32 13 -69 26 -82 29
-13 3 -57 14 -97 25 -40 10 -73 19 -75 19 -3 -1 -110 14 -131 18 -29 5 -31 12
-13 43 21 35 21 38 2 38 -8 0 -15 -3 -15 -6 0 -4 -17 -6 -37 -6 -33 0 -40 5
-60 40 l-22 40 -16 -38z m-120 -201 c47 -8 51 -13 48 -66 -2 -41 -2 -42 20
-26 73 53 64 51 107 22 l40 -26 0 42 c0 65 8 72 76 64 175 -21 326 -63 409
-114 19 -11 19 -13 -15 -42 -38 -32 -37 -33 27 -30 39 1 41 0 48 -32 14 -73
14 -73 48 -29 17 23 34 41 38 41 72 0 299 -233 299 -307 0 -12 -66 -48 -82
-45 -5 1 -8 -2 -8 -6 0 -5 18 -14 40 -21 43 -13 50 -33 30 -85 -12 -31 -12
-31 44 -5 43 21 44 22 69 3 40 -29 67 -97 81 -207 3 -17 8 -54 11 -80 4 -26 3
-62 0 -79 -7 -29 -8 -30 -56 -25 -27 3 -49 2 -49 -1 0 -4 11 -20 25 -36 31
-36 31 -42 1 -61 -42 -28 -40 -44 4 -41 22 2 44 0 51 -4 12 -8 15 -61 4 -112
-11 -56 -66 -223 -80 -242 -13 -16 -15 -16 -55 4 l-42 21 7 -33 c4 -18 8 -37
9 -43 0 -5 -19 -19 -43 -31 l-43 -21 41 -16 c22 -9 41 -19 41 -23 0 -25 -101
-156 -184 -239 -95 -94 -91 -92 -122 -56 -30 36 -44 33 -44 -10 0 -30 -23 -50
-40 -33 -5 5 -12 36 -15 69 -7 78 -33 225 -44 250 -41 90 -70 146 -99 185 -50
66 -131 141 -145 134 -7 -4 -9 -4 -5 1 10 10 -21 34 -44 35 -10 0 -18 5 -18
10 0 6 -10 10 -23 10 -12 0 -31 6 -42 14 -11 7 -47 19 -80 25 -33 7 -82 16
-108 22 -116 22 -273 -7 -354 -67 -17 -13 -36 -24 -42 -24 -6 0 -11 -4 -11 -9
0 -5 -8 -12 -18 -15 -32 -11 -150 -139 -179 -195 -10 -20 -23 -43 -29 -51 -7
-8 -26 -44 -44 -80 -17 -36 -38 -77 -46 -92 -8 -14 -14 -31 -14 -37 0 -6 -16
-43 -35 -82 -19 -39 -35 -79 -35 -90 0 -10 -5 -21 -11 -25 -14 -8 -7 -69 17
-142 9 -29 14 -55 11 -58 -10 -10 -65 15 -139 63 -38 23 -68 41 -68 39 0 -2
-17 12 -37 31 -21 19 -50 42 -65 51 -42 24 -41 38 4 72 33 23 38 30 22 32 -10
0 -23 2 -29 3 -5 2 -18 3 -27 4 -14 1 -18 10 -18 46 l0 46 -30 -31 c-16 -16
-35 -30 -43 -30 -7 0 -29 25 -48 56 -18 31 -38 61 -44 67 -15 18 -54 95 -76
150 l-19 48 28 9 c70 26 70 26 30 46 -45 21 -46 29 -13 74 14 18 23 35 21 37
-2 2 -22 -3 -44 -10 -37 -13 -43 -13 -57 2 -32 37 -43 297 -14 357 13 26 19
29 67 30 28 1 52 4 53 8 1 4 -8 19 -20 32 -28 32 -27 43 11 74 l32 27 -47 7
c-43 7 -47 9 -47 36 0 16 4 31 9 34 5 3 12 18 16 33 11 44 105 201 151 252
l42 46 38 -20 c22 -11 43 -21 48 -23 4 -3 5 5 1 18 -13 39 2 68 42 80 53 17
60 27 25 35 -58 12 -57 28 4 81 122 106 243 179 309 186 27 3 32 -2 50 -39
l21 -42 24 39 c26 42 41 47 98 31 38 -11 38 -11 12 31 -11 18 -20 38 -20 43 0
25 120 66 240 82 25 3 46 6 47 7 4 4 77 -2 118 -8z"/>
</g>
</svg>
